<svg width="256" height="256" viewBox="0 0 256 256" version="1.1" xmlns="http://www.w3.org/2000/svg" xmlns:xlink="http://www.w3.org/1999/xlink">
<title>dm-Wahtsapp</title>
<desc>Created using Figma</desc>
<g id="Canvas" transform="translate(-548 0)">
<g id="dm-Wahtsapp">
<g id="Rectangle">
<use xlink:href="#path0_fill" transform="translate(548 0)" fill="#25D366"/>
</g>
<g id="Vector">
<use xlink:href="#path1_fill" transform="translate(591 44)" fill="#FFFFFF"/>
</g>
</g>
</g>
<defs>
<path id="path0_fill" d="M 0 29C 0 12.9837 12.9837 0 29 0L 227 0C 243.016 0 256 12.9837 256 29L 256 227C 256 243.016 243.016 256 227 256L 29 256C 12.9837 256 0 243.016 0 227L 0 29Z"/>
<path id="path1_fill" d="M 170 82.8108C 170 128.546 132.64 165.622 86.5451 165.622C 71.9119 165.622 58.1646 161.882 46.2041 155.318L 0 170L 15.0639 125.57C 7.46489 113.092 3.08833 98.4565 3.08833 82.8108C 3.08833 37.0751 40.4524 0 86.547 0C 132.643 -2.51651e-14 170 37.0751 170 82.8108ZM 86.5451 13.1882C 47.8531 13.1882 16.3804 44.421 16.3804 82.8108C 16.3804 98.0466 21.3463 112.155 29.7462 123.632L 20.9799 149.487L 47.9438 140.917C 59.0221 148.191 72.2934 152.433 86.547 152.433C 125.233 152.433 156.712 121.204 156.712 82.8127C 156.71 44.4229 125.235 13.1882 86.5451 13.1882ZM 128.688 101.883C 128.172 101.039 126.811 100.529 124.767 99.5142C 122.719 98.4999 112.659 93.5869 110.789 92.9145C 108.913 92.2363 107.546 91.8963 106.184 93.9269C 104.822 95.9593 100.901 100.529 99.705 101.883C 98.5112 103.241 97.3193 103.411 95.2718 102.395C 93.228 101.38 86.6377 99.2347 78.8233 92.3194C 72.743 86.9418 68.6366 80.2986 67.4428 78.2661C 66.2509 76.2356 67.3181 75.1381 68.34 74.1276C 69.2618 73.2171 70.3876 71.757 71.4094 70.5727C 72.4351 69.3864 72.7751 68.5421 73.4532 67.1859C 74.1389 65.8316 73.797 64.6472 73.2832 63.6291C 72.7732 62.6148 68.6781 52.6263 66.9743 48.5633C 65.2706 44.5003 63.5687 45.1766 62.373 45.1766C 61.1811 45.1766 59.8154 45.0066 58.4517 45.0066C 57.0879 45.0066 54.8703 45.5147 52.9947 47.5452C 51.1209 49.5777 45.8377 54.4888 45.8377 64.4753C 45.8377 74.4638 53.1647 84.1141 54.1903 85.4684C 55.2122 86.8209 68.3381 107.984 89.1348 116.112C 109.933 124.234 109.933 121.524 113.685 121.184C 117.432 120.845 125.785 116.274 127.496 111.537C 129.196 106.792 129.196 102.729 128.688 101.883Z"/>
</defs>
</svg>
